<svg width="40" height="45" viewBox="0 0 40 45" fill="none" xmlns="http://www.w3.org/2000/svg">
<path d="M0 0.376709H40V44.5411H0V0.376709Z" fill="#E5E5E5"/>
<path d="M36.8889 34.0636C36.5884 32.0166 35.3678 30.2973 31.7522 28.694C30.4962 28.0628 29.096 27.6109 28.6787 26.57C28.5306 25.9642 28.5109 25.623 28.6046 25.2563C28.8737 24.0664 30.1727 23.6954 31.2022 24.0366C31.8653 24.2796 32.4929 24.8384 32.8715 25.7298C34.6421 24.476 34.6385 24.4843 35.8748 23.6226C35.4222 22.8552 35.1806 22.5011 34.8843 22.1728C33.8194 20.8721 32.3684 20.2022 30.0478 20.2534L28.839 20.4244C27.6807 20.7445 26.5768 21.4093 25.9294 22.3007C23.9871 24.7108 24.541 28.9288 26.9045 30.6647C29.233 32.5758 32.6535 33.0106 33.0904 34.7977C33.5156 36.9855 31.6201 37.6938 29.7361 37.4422C28.3477 37.1264 27.5755 36.3547 26.7406 34.9514C25.2041 35.9239 25.2041 35.9239 23.6242 36.9174C23.9989 37.8131 24.3925 38.2185 25.0205 38.9945C27.9927 42.2913 35.4304 42.1293 36.7644 37.1393C36.8185 36.968 37.1777 35.8253 36.8889 34.0636ZM21.5216 20.5176H17.6838L17.6681 31.3679C17.6681 33.6754 17.7772 35.7909 17.4341 36.4393C16.8726 37.7146 15.4176 37.5565 14.7546 37.3092C14.0797 36.9465 13.7365 36.4307 13.339 35.7016C13.2298 35.4923 13.1479 35.3303 13.1203 35.3178L10 37.4074C10.5189 38.5719 11.2832 39.5827 12.2622 40.2393C13.7247 41.1992 15.6903 41.4935 17.7461 40.9773C19.084 40.5512 20.2384 39.6684 20.8428 38.3246C21.7166 36.5629 21.5292 34.4307 21.5213 32.0722C21.541 28.2245 21.5216 24.3775 21.5216 20.5176Z" fill="#323330"/>
</svg>
