<svg width="57" height="49" viewBox="0 0 57 49" fill="none" xmlns="http://www.w3.org/2000/svg">
<g clip-path="url(#clip0)">
<path d="M52.9116 19.3518C52.8189 19.1299 52.6837 18.928 52.5136 18.7573L47.0139 13.2915C46.8436 13.1223 46.6415 12.9881 46.419 12.8965C46.1966 12.8049 45.9582 12.7578 45.7174 12.7578C45.4766 12.7578 45.2382 12.8049 45.0158 12.8965C44.7933 12.9881 44.5912 13.1223 44.4209 13.2915C44.2507 13.4607 44.1156 13.6616 44.0235 13.8827C43.9313 14.1037 43.8839 14.3407 43.8839 14.58C43.8839 14.8193 43.9313 15.0562 44.0235 15.2773C44.1156 15.4984 44.2507 15.6992 44.4209 15.8684L46.7921 18.225H36.5478C36.3031 18.2189 36.0597 18.2616 35.8319 18.3504C35.6041 18.4393 35.3964 18.5726 35.2213 18.7424C35.0461 18.9122 34.9068 19.1152 34.8118 19.3393C34.7167 19.5635 34.6677 19.8042 34.6677 20.0475C34.6677 20.2907 34.7167 20.5315 34.8118 20.7556C34.9068 20.9797 35.0461 21.1827 35.2213 21.3525C35.3964 21.5223 35.6041 21.6556 35.8319 21.7445C36.0597 21.8333 36.3031 21.876 36.5478 21.87H46.7921L44.4198 24.2265C44.0818 24.5696 43.8936 25.0314 43.8961 25.5115C43.8987 25.9917 44.0917 26.4515 44.4334 26.791C44.775 27.1306 45.2377 27.3224 45.7208 27.325C46.204 27.3275 46.6686 27.1405 47.0139 26.8045L52.5136 21.3376C52.7697 21.0826 52.9442 20.758 53.0151 20.4046C53.0859 20.0512 53.0499 19.6849 52.9116 19.3518Z" fill="url(#paint0_linear)"/>
<path d="M40.2154 25.5161C39.974 25.5159 39.7351 25.5631 39.5121 25.655C39.2892 25.7468 39.0867 25.8815 38.9163 26.0513C38.7459 26.2211 38.6109 26.4227 38.519 26.6444C38.4271 26.8662 38.3802 27.1038 38.381 27.3437V36.4556H31.0457V7.29564C31.0453 6.90358 30.9179 6.52207 30.6824 6.20758C30.4469 5.89308 30.1157 5.66231 29.7379 5.54943L23.3693 3.65065H38.381V12.7637C38.3749 13.0068 38.4178 13.2488 38.5072 13.4752C38.5967 13.7016 38.7308 13.9079 38.9016 14.082C39.0725 14.2561 39.2768 14.3945 39.5023 14.489C39.7278 14.5835 39.9701 14.6321 40.2148 14.6321C40.4595 14.6321 40.7018 14.5835 40.9273 14.489C41.1528 14.3945 41.3571 14.2561 41.528 14.082C41.6988 13.9079 41.8329 13.7016 41.9224 13.4752C42.0118 13.2488 42.0547 13.0068 42.0486 12.7637V1.82306C42.0489 1.58367 42.0017 1.34656 41.9097 1.12532C41.8177 0.904072 41.6827 0.703031 41.5124 0.5337C41.3421 0.364368 41.1399 0.23007 40.9174 0.138492C40.6948 0.0469132 40.4562 -0.000148434 40.2154 3.51689e-07H10.8744C10.8108 0.00764142 10.7477 0.0193448 10.6856 0.0350376C10.6021 0.0441176 10.5193 0.0584625 10.4377 0.0779861C10.2503 0.125607 10.0715 0.201865 9.90771 0.304032C9.8679 0.330027 9.81787 0.331158 9.7792 0.360544C9.76441 0.371846 9.75873 0.39219 9.74394 0.402363C9.54279 0.558726 9.37663 0.755039 9.25606 0.97878C9.23105 1.02738 9.22536 1.0805 9.20489 1.13136C9.13837 1.26697 9.08982 1.41057 9.06046 1.55859C9.05647 1.61126 9.05647 1.66415 9.06046 1.71682C9.06046 1.75299 9.0343 1.78576 9.0343 1.82306V38.2741C9.0347 38.6958 9.18229 39.1043 9.45189 39.43C9.72149 39.7556 10.0964 39.9783 10.5127 40.0599L28.8508 43.7049C28.9689 43.7301 29.0894 43.7426 29.2102 43.7422C29.6961 43.7425 30.1623 43.5512 30.5064 43.2102C30.8506 42.8693 31.0445 42.4066 31.0457 41.9236V40.0972H40.2154C40.4562 40.0972 40.6947 40.05 40.9172 39.9584C41.1397 39.8668 41.3418 39.7325 41.5121 39.5632C41.6823 39.3939 41.8173 39.1929 41.9094 38.9717C42.0015 38.7505 42.0488 38.5135 42.0486 38.2741V27.3437C42.0495 27.1039 42.0027 26.8663 41.911 26.6445C41.8193 26.4228 41.6844 26.2212 41.514 26.0514C41.3437 25.8816 41.1413 25.7469 40.9184 25.655C40.6956 25.5631 40.4566 25.5159 40.2154 25.5161Z" fill="url(#paint1_linear)"/>
<path d="M2.1596 4.65088C2.27703 4.84732 2.3332 5.07396 2.32101 5.30213C2.30882 5.5303 2.22881 5.74975 2.0911 5.93272C1.95339 6.1157 1.76418 6.25397 1.54739 6.33005C1.3306 6.40614 1.09597 6.41661 0.873188 6.36015C0.650406 6.30369 0.449478 6.18284 0.295819 6.01287C0.14216 5.84291 0.0426739 5.63147 0.00994536 5.40531C-0.0227831 5.17914 0.0127162 4.94841 0.111953 4.7423C0.21119 4.53619 0.369706 4.36396 0.567449 4.24739C0.832595 4.09179 1.14896 4.04688 1.44733 4.1225C1.74571 4.19812 2.0018 4.3881 2.1596 4.65088ZM0.917721 5.38327C0.946283 5.43117 0.988497 5.46957 1.03902 5.49362C1.08955 5.51766 1.14612 5.52628 1.20157 5.51837C1.25702 5.51045 1.30887 5.48637 1.35055 5.44917C1.39223 5.41197 1.42187 5.36331 1.43572 5.30937C1.44956 5.25542 1.447 5.1986 1.42835 5.1461C1.4097 5.0936 1.3758 5.04778 1.33094 5.01443C1.28608 4.98108 1.23227 4.96171 1.17633 4.95876C1.12039 4.95581 1.06482 4.96942 1.01666 4.99786C0.984606 5.01662 0.956601 5.0415 0.93426 5.07106C0.911919 5.10062 0.895682 5.13428 0.886486 5.17011C0.87729 5.20593 0.875315 5.24321 0.880676 5.27979C0.886037 5.31637 0.898627 5.35154 0.917721 5.38327Z" fill="#AD3088"/>
<path d="M9.25944 46.9893C9.28928 47.0386 9.30889 47.0932 9.3171 47.1501C9.3253 47.207 9.32193 47.2649 9.3072 47.3205L8.96603 48.6711C8.9517 48.7267 8.92652 48.7788 8.8919 48.8247C8.85728 48.8705 8.81392 48.9091 8.76428 48.9383C8.71464 48.9675 8.6597 48.9867 8.60261 48.9947C8.54551 49.0028 8.48737 48.9996 8.43152 48.9853L7.06682 48.6463C6.95395 48.6175 6.85716 48.5454 6.79768 48.4458C6.7382 48.3463 6.72089 48.2273 6.74953 48.1151L7.0907 46.7644C7.10434 46.7077 7.12931 46.6542 7.16411 46.6072C7.19892 46.5602 7.24286 46.5206 7.29334 46.4908C7.34381 46.461 7.3998 46.4415 7.45797 46.4336C7.51615 46.4256 7.57534 46.4294 7.63203 46.4446L8.99104 46.7893C9.04689 46.8033 9.09938 46.8282 9.14546 46.8625C9.19153 46.8969 9.23028 46.94 9.25944 46.9893ZM8.21885 48.0325L8.3485 47.5273L7.84015 47.3985L7.7105 47.9037L8.21885 48.0325Z" fill="#AD3088"/>
<path d="M56.9386 3.36018C56.9976 3.45965 57.0148 3.57824 56.9863 3.69021L56.6395 5.04649C56.6254 5.10206 56.6004 5.15433 56.566 5.20029C56.5315 5.24625 56.4883 5.28499 56.4387 5.31429C56.3892 5.34359 56.3343 5.36287 56.2772 5.37103C56.2201 5.37918 56.162 5.37606 56.1061 5.36182L54.7471 5.02275C54.6912 5.00877 54.6386 4.98394 54.5923 4.9497C54.5461 4.91547 54.5071 4.87248 54.4776 4.82323C54.4481 4.77398 54.4287 4.71942 54.4205 4.66269C54.4123 4.60597 54.4155 4.54819 54.4298 4.49267L54.7767 3.1364C54.7907 3.08071 54.8157 3.02836 54.8502 2.98237C54.8848 2.93639 54.9282 2.89769 54.978 2.86853C55.078 2.80987 55.1974 2.79282 55.31 2.82106L56.669 3.16013C56.7251 3.17405 56.7777 3.19891 56.824 3.23325C56.8703 3.2676 56.9092 3.31074 56.9386 3.36018ZM55.8968 4.39999L56.0265 3.89591L55.5216 3.76933L55.3919 4.27341L55.8968 4.39999Z" fill="#AD3088"/>
</g>
<defs>
<linearGradient id="paint0_linear" x1="34.7134" y1="20.048" x2="53.0504" y2="20.048" gradientUnits="userSpaceOnUse">
<stop stop-color="#7759A1"/>
<stop offset="0.26" stop-color="#7F539D"/>
<stop offset="0.67" stop-color="#964193"/>
<stop offset="1" stop-color="#AD3088"/>
</linearGradient>
<linearGradient id="paint1_linear" x1="3055.32" y1="11092.1" x2="12638.2" y2="11092.1" gradientUnits="userSpaceOnUse">
<stop stop-color="#7759A1"/>
<stop offset="0.26" stop-color="#7F539D"/>
<stop offset="0.67" stop-color="#964193"/>
<stop offset="1" stop-color="#AD3088"/>
</linearGradient>
<clipPath id="clip0">
<rect width="57" height="49" fill="white"/>
</clipPath>
</defs>
</svg>
