<svg width="40" height="37" viewBox="0 0 40 37" fill="none" xmlns="http://www.w3.org/2000/svg">
<path d="M21.1547 14.3265H8.90503V23.7562H21.1547V14.3265Z" fill="url(#paint0_linear)"/>
<path d="M31.7232 4H7.23514C6.58581 4.00076 5.95714 4.22654 5.45776 4.63832C4.95839 5.05011 4.61968 5.62203 4.50016 6.25526C3.94831 6.35816 3.44059 6.62387 3.04339 7.01767C2.64619 7.41146 2.37801 7.91501 2.2739 8.46246C1.63524 8.58124 1.05847 8.91765 0.643278 9.41356C0.228081 9.90947 0.000546963 10.5337 0 11.1784V27.744C0.00085485 28.4759 0.294298 29.1776 0.815956 29.6952C1.33761 30.2128 2.04489 30.5039 2.78262 30.5048H27.2715C27.9205 30.5038 28.5488 30.2781 29.0481 29.8667C29.5474 29.4553 29.8863 28.8839 30.0065 28.2511C30.5585 28.1481 31.0664 27.8822 31.4636 27.4881C31.8609 27.094 32.1289 26.5901 32.2327 26.0423C32.871 25.9238 33.4476 25.5877 33.8628 25.0923C34.2779 24.5968 34.5057 23.9731 34.5066 23.3288V6.7608C34.5058 6.02871 34.2122 5.32686 33.6904 4.80927C33.1686 4.29168 32.4611 4.00064 31.7232 4V4ZM1.11353 11.1784C1.11375 10.7392 1.28964 10.318 1.60259 10.0074C1.91553 9.69673 2.33994 9.52202 2.78262 9.52159H27.2715C27.7142 9.52202 28.1386 9.69673 28.4515 10.0074C28.7645 10.318 28.9404 10.7392 28.9406 11.1784V11.7304H1.11353V11.1784ZM28.9406 27.744C28.9401 28.183 28.7642 28.604 28.4512 28.9145C28.1383 29.2249 27.714 29.3995 27.2715 29.4H2.78262C2.34008 29.3995 1.91579 29.2249 1.60287 28.9145C1.28995 28.604 1.11396 28.183 1.11353 27.744V12.8344H28.9406V27.744ZM31.1668 25.5352C31.1663 25.8775 31.0591 26.2113 30.8599 26.4908C30.6607 26.7704 30.3792 26.982 30.0541 27.0966V11.1784C30.0533 10.4464 29.7598 9.74456 29.2382 9.22687C28.7166 8.70917 28.0093 8.41785 27.2715 8.41679H3.43508C3.55055 8.09416 3.76379 7.81487 4.04555 7.61721C4.32731 7.41956 4.66381 7.31323 5.00888 7.3128H29.4977C29.9404 7.31322 30.3648 7.48794 30.6778 7.79858C30.9907 8.10922 31.1666 8.53039 31.1668 8.96959V25.5352ZM33.3931 23.3264C33.3923 23.6685 33.285 24.002 33.0858 24.2812C32.8866 24.5604 32.6053 24.7718 32.2804 24.8862V8.96959C32.2795 8.23757 31.9861 7.53576 31.4645 7.01807C30.9428 6.50038 30.2356 6.20906 29.4977 6.208H5.66134C5.77681 5.88536 5.99005 5.60607 6.27181 5.40842C6.55357 5.21076 6.89007 5.10443 7.23514 5.104H31.7232C32.166 5.10421 32.5906 5.27883 32.9038 5.5895C33.2169 5.90016 33.3929 6.32145 33.3931 6.7608V23.3264Z" fill="url(#paint1_linear)"/>
<path d="M2.78244 10.807C3.08971 10.807 3.3388 10.5599 3.3388 10.255C3.3388 9.95014 3.08971 9.703 2.78244 9.703C2.47517 9.703 2.22607 9.95014 2.22607 10.255C2.22607 10.5599 2.47517 10.807 2.78244 10.807Z" fill="url(#paint2_linear)"/>
<path d="M5.00876 10.807C5.31603 10.807 5.56512 10.5599 5.56512 10.255C5.56512 9.95014 5.31603 9.703 5.00876 9.703C4.70148 9.703 4.45239 9.95014 4.45239 10.255C4.45239 10.5599 4.70148 10.807 5.00876 10.807Z" fill="url(#paint3_linear)"/>
<path d="M7.23532 10.807C7.54259 10.807 7.79168 10.5599 7.79168 10.255C7.79168 9.95014 7.54259 9.703 7.23532 9.703C6.92805 9.703 6.67896 9.95014 6.67896 10.255C6.67896 10.5599 6.92805 10.807 7.23532 10.807Z" fill="url(#paint4_linear)"/>
<path d="M8.90524 24.0599H21.1493C21.2224 24.06 21.2948 24.0458 21.3623 24.0181C21.4299 23.9904 21.4912 23.9498 21.5429 23.8985C21.5946 23.8472 21.6356 23.7863 21.6635 23.7193C21.6914 23.6523 21.7057 23.5804 21.7056 23.5079V14.6727C21.7056 14.5263 21.647 14.3859 21.5427 14.2824C21.4383 14.1789 21.2968 14.1207 21.1493 14.1207H8.90524C8.75768 14.1207 8.61617 14.1789 8.51183 14.2824C8.40749 14.3859 8.34888 14.5263 8.34888 14.6727V23.5079C8.34877 23.5804 8.36309 23.6523 8.39101 23.7193C8.41893 23.7863 8.45991 23.8472 8.5116 23.8985C8.56328 23.9498 8.62466 23.9904 8.6922 24.0181C8.75975 24.0458 8.83215 24.06 8.90524 24.0599V24.0599ZM9.4616 15.2223H20.5929V22.9535H9.4616V15.2223Z" fill="#AD3088"/>
<path d="M13.6425 20.1246C13.7291 20.173 13.8273 20.1974 13.9267 20.1953C14.0262 20.1932 14.1232 20.1646 14.2077 20.1126L16.9209 18.4566C16.9833 18.4186 17.0375 18.3688 17.0804 18.31C17.1233 18.2512 17.1542 18.1846 17.1711 18.114C17.1881 18.0434 17.1908 17.9701 17.1792 17.8984C17.1676 17.8268 17.1418 17.7581 17.1034 17.6963C17.0579 17.6226 16.9954 17.5608 16.9209 17.516L14.2053 15.8632C14.121 15.8115 14.0244 15.7831 13.9253 15.7809C13.8262 15.7787 13.7284 15.8029 13.6419 15.8508C13.5554 15.8988 13.4834 15.9689 13.4334 16.0537C13.3834 16.1386 13.3571 16.2352 13.3574 16.3335V19.6463C13.3582 19.7439 13.3849 19.8396 13.435 19.9236C13.485 20.0076 13.5566 20.0769 13.6425 20.1246ZM14.4701 17.3205L15.5651 17.9895L14.4701 18.6577V17.3205Z" fill="#AD3088"/>
<path d="M18.9228 20.7503H17.8101C17.8046 20.6074 17.7436 20.4722 17.6397 20.373C17.5359 20.2739 17.3974 20.2185 17.2533 20.2185C17.1092 20.2185 16.9707 20.2739 16.8669 20.373C16.7631 20.4722 16.702 20.6074 16.6966 20.7503H11.1313C10.9838 20.7503 10.8422 20.8084 10.7379 20.9119C10.6336 21.0155 10.575 21.1559 10.575 21.3023C10.575 21.4487 10.6336 21.5891 10.7379 21.6926C10.8422 21.7961 10.9838 21.8543 11.1313 21.8543H16.6966C16.702 21.9971 16.7631 22.1323 16.8669 22.2315C16.9707 22.3306 17.1092 22.386 17.2533 22.386C17.3974 22.386 17.5359 22.3306 17.6397 22.2315C17.7436 22.1323 17.8046 21.9971 17.8101 21.8543H18.9228C19.0704 21.8543 19.2119 21.7961 19.3162 21.6926C19.4206 21.5891 19.4792 21.4487 19.4792 21.3023C19.4792 21.1559 19.4206 21.0155 19.3162 20.9119C19.2119 20.8084 19.0704 20.7503 18.9228 20.7503V20.7503Z" fill="url(#paint5_linear)"/>
<path d="M8.9051 25.7173H21.1491C21.2931 25.7119 21.4294 25.6513 21.5293 25.5483C21.6293 25.4453 21.6851 25.3079 21.6851 25.165C21.6851 25.022 21.6293 24.8846 21.5293 24.7816C21.4294 24.6786 21.2931 24.618 21.1491 24.6125H8.9051C8.76111 24.618 8.62484 24.6786 8.5249 24.7816C8.42497 24.8846 8.36914 25.022 8.36914 25.165C8.36914 25.3079 8.42497 25.4453 8.5249 25.5483C8.62484 25.6513 8.76111 25.7119 8.9051 25.7173V25.7173Z" fill="url(#paint6_linear)"/>
<path d="M8.9051 27.3735H16.6966C16.8406 27.368 16.9769 27.3075 17.0768 27.2045C17.1767 27.1015 17.2326 26.964 17.2326 26.8211C17.2326 26.6781 17.1767 26.5407 17.0768 26.4377C16.9769 26.3347 16.8406 26.2741 16.6966 26.2687H8.9051C8.76111 26.2741 8.62484 26.3347 8.5249 26.4377C8.42497 26.5407 8.36914 26.6781 8.36914 26.8211C8.36914 26.964 8.42497 27.1015 8.5249 27.2045C8.62484 27.3075 8.76111 27.368 8.9051 27.3735V27.3735Z" fill="url(#paint7_linear)"/>
<path d="M18.9226 26.2687H18.3663C18.2223 26.2741 18.086 26.3347 17.9861 26.4377C17.8862 26.5407 17.8303 26.6781 17.8303 26.8211C17.8303 26.964 17.8862 27.1015 17.9861 27.2045C18.086 27.3075 18.2223 27.368 18.3663 27.3735H18.9226C19.0666 27.368 19.2029 27.3075 19.3028 27.2045C19.4028 27.1015 19.4586 26.964 19.4586 26.8211C19.4586 26.6781 19.4028 26.5407 19.3028 26.4377C19.2029 26.3347 19.0666 26.2741 18.9226 26.2687V26.2687Z" fill="url(#paint8_linear)"/>
<path d="M39.0205 18.9573C38.8267 18.9573 38.6373 18.9003 38.4762 18.7934C38.3152 18.6866 38.1896 18.5348 38.1155 18.3572C38.0414 18.1796 38.022 17.9841 38.0599 17.7956C38.0978 17.6071 38.1911 17.4339 38.3282 17.298C38.4653 17.1621 38.6399 17.0697 38.8299 17.0322C39.02 16.9948 39.2169 17.0142 39.3959 17.0879C39.5749 17.1616 39.7278 17.2862 39.8353 17.4462C39.9428 17.6061 40.0002 17.794 40 17.9863C39.9996 18.2438 39.8962 18.4907 39.7126 18.6727C39.529 18.8547 39.2801 18.9571 39.0205 18.9573ZM39.0205 17.7491C38.9726 17.7491 38.9258 17.7632 38.8859 17.7896C38.8461 17.8161 38.815 17.8536 38.7967 17.8975C38.7784 17.9414 38.7736 17.9897 38.7829 18.0364C38.7923 18.083 38.8153 18.1258 38.8492 18.1594C38.8831 18.193 38.9263 18.2159 38.9732 18.2252C39.0202 18.2345 39.0689 18.2297 39.1132 18.2115C39.1575 18.1933 39.1953 18.1625 39.2219 18.123C39.2485 18.0835 39.2628 18.037 39.2628 17.9895C39.2628 17.9257 39.2372 17.8646 39.1918 17.8195C39.1464 17.7745 39.0848 17.7491 39.0205 17.7491V17.7491Z" fill="#AD3088"/>
<path d="M3.43514 2.3933C3.33707 2.39318 3.24302 2.35459 3.17351 2.28594L2.33776 1.45674C2.26828 1.38778 2.22925 1.29427 2.22925 1.19676C2.22925 1.09926 2.26828 1.00575 2.33776 0.936788L3.17351 0.107588C3.20786 0.0734805 3.24864 0.046423 3.29353 0.0279625C3.33843 0.00950187 3.38654 0 3.43514 0C3.48373 0 3.53185 0.00950187 3.57674 0.0279625C3.62164 0.046423 3.66242 0.0734805 3.69677 0.107588L4.53091 0.936788C4.56541 0.97088 4.59278 1.01139 4.61146 1.05601C4.63014 1.10062 4.63975 1.14846 4.63975 1.19676C4.63975 1.24507 4.63014 1.29291 4.61146 1.33752C4.59278 1.38213 4.56541 1.42265 4.53091 1.45674L3.69677 2.28594C3.6624 2.32001 3.62161 2.34702 3.57672 2.36544C3.53183 2.38386 3.48372 2.39333 3.43514 2.3933ZM3.12264 1.19636L3.43514 1.50641L3.74764 1.19636L3.43514 0.887116L3.12264 1.19636Z" fill="#AD3088"/>
<path d="M7.24462 36.2495C7.19603 36.2496 7.14791 36.2401 7.10301 36.2217C7.05812 36.2033 7.01733 36.1762 6.98299 36.1421L6.14562 35.3129C6.07614 35.244 6.03711 35.1505 6.03711 35.053C6.03711 34.9555 6.07614 34.8619 6.14562 34.793L6.98137 33.9638C7.01572 33.9297 7.0565 33.9026 7.1014 33.8842C7.14629 33.8657 7.19441 33.8562 7.243 33.8562C7.2916 33.8562 7.33971 33.8657 7.38461 33.8842C7.4295 33.9026 7.47028 33.9297 7.50463 33.9638L8.34038 34.793C8.40967 34.8621 8.44856 34.9555 8.44856 35.053C8.44856 35.1504 8.40967 35.2439 8.34038 35.3129L7.50463 36.1421C7.43567 36.2106 7.34218 36.2492 7.24462 36.2495V36.2495ZM6.93212 35.0526L7.24462 35.3634L7.55712 35.0526L7.24462 34.7433L6.93212 35.0526Z" fill="#AD3088"/>
<defs>
<linearGradient id="paint0_linear" x1="15.0291" y1="-27.4011" x2="15.0291" y2="-27.7976" gradientUnits="userSpaceOnUse">
<stop stop-color="white"/>
<stop offset="1" stop-color="white"/>
</linearGradient>
<linearGradient id="paint1_linear" x1="0.310886" y1="34.0611" x2="35.4455" y2="-1.35043" gradientUnits="userSpaceOnUse">
<stop stop-color="#7759A1"/>
<stop offset="0.26" stop-color="#7F539D"/>
<stop offset="0.67" stop-color="#964193"/>
<stop offset="1" stop-color="#AD3088"/>
</linearGradient>
<linearGradient id="paint2_linear" x1="-119.707" y1="-2021.4" x2="364.436" y2="-2509.38" gradientUnits="userSpaceOnUse">
<stop stop-color="#7759A1"/>
<stop offset="0.26" stop-color="#7F539D"/>
<stop offset="0.67" stop-color="#964193"/>
<stop offset="1" stop-color="#AD3088"/>
</linearGradient>
<linearGradient id="paint3_linear" x1="-102.148" y1="-2006.18" x2="382.007" y2="-2494.16" gradientUnits="userSpaceOnUse">
<stop stop-color="#7759A1"/>
<stop offset="0.26" stop-color="#7F539D"/>
<stop offset="0.67" stop-color="#964193"/>
<stop offset="1" stop-color="#AD3088"/>
</linearGradient>
<linearGradient id="paint4_linear" x1="-84.5767" y1="-1990.96" x2="399.567" y2="-2478.94" gradientUnits="userSpaceOnUse">
<stop stop-color="#7759A1"/>
<stop offset="0.26" stop-color="#7F539D"/>
<stop offset="0.67" stop-color="#964193"/>
<stop offset="1" stop-color="#AD3088"/>
</linearGradient>
<linearGradient id="paint5_linear" x1="335.846" y1="4014.28" x2="772.731" y2="5809.06" gradientUnits="userSpaceOnUse">
<stop stop-color="#7759A1"/>
<stop offset="0.26" stop-color="#7F539D"/>
<stop offset="0.67" stop-color="#964193"/>
<stop offset="1" stop-color="#AD3088"/>
</linearGradient>
<linearGradient id="paint6_linear" x1="815.981" y1="2033.77" x2="895.831" y2="2996.19" gradientUnits="userSpaceOnUse">
<stop stop-color="#7759A1"/>
<stop offset="0.26" stop-color="#7F539D"/>
<stop offset="0.67" stop-color="#964193"/>
<stop offset="1" stop-color="#AD3088"/>
</linearGradient>
<linearGradient id="paint7_linear" x1="515.446" y1="2039.24" x2="634.384" y2="2993.44" gradientUnits="userSpaceOnUse">
<stop stop-color="#7759A1"/>
<stop offset="0.26" stop-color="#7F539D"/>
<stop offset="0.67" stop-color="#964193"/>
<stop offset="1" stop-color="#AD3088"/>
</linearGradient>
<linearGradient id="paint8_linear" x1="169.896" y1="1999.26" x2="620.125" y2="2662.82" gradientUnits="userSpaceOnUse">
<stop stop-color="#7759A1"/>
<stop offset="0.26" stop-color="#7F539D"/>
<stop offset="0.67" stop-color="#964193"/>
<stop offset="1" stop-color="#AD3088"/>
</linearGradient>
</defs>
</svg>
